<svg width="151" height="150" viewBox="0 0 151 150" fill="none" xmlns="http://www.w3.org/2000/svg">
<g id="Search-rafiki 2">
<g id="freepik--background-simple--inject-66">
<path id="Vector" d="M25.604 43.3528C20.675 84.7168 68.537 124.845 105.569 95.1328C122.288 81.7198 134.282 38.8288 105.992 32.5468C89.768 28.9468 72.329 43.3468 56.864 37.6798C49.43 34.9588 45.623 24.2518 36.983 25.3798C28.871 26.4568 26.426 36.4588 25.604 43.3528Z" fill="#C7D9E5"/>
<path id="Vector_2" opacity="0.9" d="M25.604 43.3528C20.675 84.7168 68.537 124.845 105.569 95.1328C122.288 81.7198 134.282 38.8288 105.992 32.5468C89.768 28.9468 72.329 43.3468 56.864 37.6798C49.43 34.9588 45.623 24.2518 36.983 25.3798C28.871 26.4568 26.426 36.4588 25.604 43.3528Z" fill="white"/>
</g>
<g id="freepik--Shadow--inject-66">
<path id="Vector_3" d="M75.5 128.269C107.625 128.269 133.667 126.748 133.667 124.873C133.667 122.997 107.625 121.477 75.5 121.477C43.3753 121.477 17.333 122.997 17.333 124.873C17.333 126.748 43.3753 128.269 75.5 128.269Z" fill="#F5F5F5"/>
</g>
<g id="freepik--speech-bubbles--inject-66">
<path id="Vector_4" d="M126.44 43.75H97.01C95.4575 43.75 94.199 45.0085 94.199 46.561V54.565C94.199 56.1175 95.4575 57.376 97.01 57.376H126.44C127.992 57.376 129.251 56.1175 129.251 54.565V46.561C129.251 45.0085 127.992 43.75 126.44 43.75Z" fill="#C7D9E5"/>
<path id="Vector_5" d="M120.602 46.0469H97.613C97.3413 46.0469 97.121 46.2672 97.121 46.5389V47.0789C97.121 47.3506 97.3413 47.5709 97.613 47.5709H120.602C120.874 47.5709 121.094 47.3506 121.094 47.0789V46.5389C121.094 46.2672 120.874 46.0469 120.602 46.0469Z" fill="#C7D9E5"/>
<path id="Vector_6" d="M113.321 49.7188H97.613C97.3413 49.7188 97.121 49.939 97.121 50.2107V50.7508C97.121 51.0225 97.3413 51.2428 97.613 51.2428H113.321C113.593 51.2428 113.813 51.0225 113.813 50.7508V50.2107C113.813 49.939 113.593 49.7188 113.321 49.7188Z" fill="#C7D9E5"/>
<path id="Vector_7" d="M109.109 53.3906H97.613C97.3413 53.3906 97.121 53.6109 97.121 53.8826V54.4226C97.121 54.6943 97.3413 54.9146 97.613 54.9146H109.109C109.381 54.9146 109.601 54.6943 109.601 54.4226V53.8826C109.601 53.6109 109.381 53.3906 109.109 53.3906Z" fill="#C7D9E5"/>
<path id="Vector_8" d="M123.356 53.3906H111.86C111.588 53.3906 111.368 53.6109 111.368 53.8826V54.4226C111.368 54.6943 111.588 54.9146 111.86 54.9146H123.356C123.628 54.9146 123.848 54.6943 123.848 54.4226V53.8826C123.848 53.6109 123.628 53.3906 123.356 53.3906Z" fill="#C7D9E5"/>
<g id="Group" opacity="0.5">
<path id="Vector_9" d="M120.602 46.0469H97.613C97.3413 46.0469 97.121 46.2672 97.121 46.5389V47.0789C97.121 47.3506 97.3413 47.5709 97.613 47.5709H120.602C120.874 47.5709 121.094 47.3506 121.094 47.0789V46.5389C121.094 46.2672 120.874 46.0469 120.602 46.0469Z" fill="white"/>
<path id="Vector_10" d="M113.321 49.7188H97.613C97.3413 49.7188 97.121 49.939 97.121 50.2107V50.7508C97.121 51.0225 97.3413 51.2428 97.613 51.2428H113.321C113.593 51.2428 113.813 51.0225 113.813 50.7508V50.2107C113.813 49.939 113.593 49.7188 113.321 49.7188Z" fill="white"/>
<path id="Vector_11" d="M109.109 53.3906H97.613C97.3413 53.3906 97.121 53.6109 97.121 53.8826V54.4226C97.121 54.6943 97.3413 54.9146 97.613 54.9146H109.109C109.381 54.9146 109.601 54.6943 109.601 54.4226V53.8826C109.601 53.6109 109.381 53.3906 109.109 53.3906Z" fill="white"/>
<path id="Vector_12" d="M123.356 53.3906H111.86C111.588 53.3906 111.368 53.6109 111.368 53.8826V54.4226C111.368 54.6943 111.588 54.9146 111.86 54.9146H123.356C123.628 54.9146 123.848 54.6943 123.848 54.4226V53.8826C123.848 53.6109 123.628 53.3906 123.356 53.3906Z" fill="white"/>
</g>
<path id="Vector_13" d="M102.866 40.5703H69.461C67.1845 40.5703 65.339 42.4158 65.339 44.6923V56.4283C65.339 58.7048 67.1845 60.5503 69.461 60.5503H102.866C105.143 60.5503 106.988 58.7048 106.988 56.4283V44.6923C106.988 42.4158 105.143 40.5703 102.866 40.5703Z" fill="#C7D9E5"/>
<path id="Vector_14" d="M104.048 43.9453H70.346C69.9467 43.9453 69.623 44.269 69.623 44.6683V45.4573C69.623 45.8566 69.9467 46.1803 70.346 46.1803H104.048C104.447 46.1803 104.771 45.8566 104.771 45.4573V44.6683C104.771 44.269 104.447 43.9453 104.048 43.9453Z" fill="#C7D9E5"/>
<path id="Vector_15" d="M93.371 49.3281H70.346C69.9467 49.3281 69.623 49.6518 69.623 50.0511V50.8401C69.623 51.2394 69.9467 51.5631 70.346 51.5631H93.371C93.7703 51.5631 94.094 51.2394 94.094 50.8401V50.0511C94.094 49.6518 93.7703 49.3281 93.371 49.3281Z" fill="#C7D9E5"/>
<path id="Vector_16" d="M87.197 54.7109H70.346C69.9467 54.7109 69.623 55.0346 69.623 55.4339V56.2229C69.623 56.6222 69.9467 56.9459 70.346 56.9459H87.197C87.5963 56.9459 87.92 56.6222 87.92 56.2229V55.4339C87.92 55.0346 87.5963 54.7109 87.197 54.7109Z" fill="#C7D9E5"/>
<path id="Vector_17" d="M105.275 54.7109H91.235C90.8357 54.7109 90.512 55.0346 90.512 55.4339V56.2229C90.512 56.6222 90.8357 56.9459 91.235 56.9459H105.275C105.674 56.9459 105.998 56.6222 105.998 56.2229V55.4339C105.998 55.0346 105.674 54.7109 105.275 54.7109Z" fill="#C7D9E5"/>
<g id="Group_2" opacity="0.5">
<path id="Vector_18" d="M104.048 43.9453H70.346C69.9467 43.9453 69.623 44.269 69.623 44.6683V45.4573C69.623 45.8566 69.9467 46.1803 70.346 46.1803H104.048C104.447 46.1803 104.771 45.8566 104.771 45.4573V44.6683C104.771 44.269 104.447 43.9453 104.048 43.9453Z" fill="white"/>
<path id="Vector_19" d="M93.371 49.3281H70.346C69.9467 49.3281 69.623 49.6518 69.623 50.0511V50.8401C69.623 51.2394 69.9467 51.5631 70.346 51.5631H93.371C93.7703 51.5631 94.094 51.2394 94.094 50.8401V50.0511C94.094 49.6518 93.7703 49.3281 93.371 49.3281Z" fill="white"/>
<path id="Vector_20" d="M87.197 54.7188H70.346C69.9467 54.7188 69.623 55.0424 69.623 55.4418V56.2307C69.623 56.63 69.9467 56.9537 70.346 56.9537H87.197C87.5963 56.9537 87.92 56.63 87.92 56.2307V55.4418C87.92 55.0424 87.5963 54.7188 87.197 54.7188Z" fill="white"/>
<path id="Vector_21" d="M105.275 54.7188H91.235C90.8357 54.7188 90.512 55.0424 90.512 55.4418V56.2307C90.512 56.63 90.8357 56.9537 91.235 56.9537H105.275C105.674 56.9537 105.998 56.63 105.998 56.2307V55.4418C105.998 55.0424 105.674 54.7188 105.275 54.7188Z" fill="white"/>
</g>
<path id="Vector_22" d="M82.097 64.1719H66.008C64.9443 64.1719 64.082 65.0342 64.082 66.0979V90.1999C64.082 91.2636 64.9443 92.1259 66.008 92.1259H82.097C83.1607 92.1259 84.023 91.2636 84.023 90.1999V66.0979C84.023 65.0342 83.1607 64.1719 82.097 64.1719Z" fill="#C7D9E5"/>
<path id="Vector_23" opacity="0.4" d="M82.097 64.1719H66.008C64.9443 64.1719 64.082 65.0342 64.082 66.0979V90.1999C64.082 91.2636 64.9443 92.1259 66.008 92.1259H82.097C83.1607 92.1259 84.023 91.2636 84.023 90.1999V66.0979C84.023 65.0342 83.1607 64.1719 82.097 64.1719Z" fill="black"/>
<path id="Vector_24" d="M81.359 67.0859H66.743C66.5475 67.0859 66.389 67.2444 66.389 67.4399V67.9709C66.389 68.1665 66.5475 68.3249 66.743 68.3249H81.359C81.5545 68.3249 81.713 68.1665 81.713 67.9709V67.4399C81.713 67.2444 81.5545 67.0859 81.359 67.0859Z" fill="#FAFAFA"/>
<path id="Vector_25" d="M76.706 70.0703H66.743C66.5475 70.0703 66.389 70.2288 66.389 70.4243V70.9553C66.389 71.1508 66.5475 71.3093 66.743 71.3093H76.706C76.9015 71.3093 77.06 71.1508 77.06 70.9553V70.4243C77.06 70.2288 76.9015 70.0703 76.706 70.0703Z" fill="#FAFAFA"/>
<path id="Vector_26" d="M81.359 73.0547H66.743C66.5475 73.0547 66.389 73.2132 66.389 73.4087V73.9397C66.389 74.1352 66.5475 74.2937 66.743 74.2937H81.359C81.5545 74.2937 81.713 74.1352 81.713 73.9397V73.4087C81.713 73.2132 81.5545 73.0547 81.359 73.0547Z" fill="#FAFAFA"/>
<path id="Vector_27" d="M72.176 76.0391H66.743C66.5475 76.0391 66.389 76.1976 66.389 76.3931V76.9241C66.389 77.1196 66.5475 77.2781 66.743 77.2781H72.176C72.3715 77.2781 72.53 77.1196 72.53 76.9241V76.3931C72.53 76.1976 72.3715 76.0391 72.176 76.0391Z" fill="#FAFAFA"/>
<path id="Vector_28" d="M79.778 76.0391H74.345C74.1495 76.0391 73.991 76.1976 73.991 76.3931V76.9241C73.991 77.1196 74.1495 77.2781 74.345 77.2781H79.778C79.9735 77.2781 80.132 77.1196 80.132 76.9241V76.3931C80.132 76.1976 79.9735 76.0391 79.778 76.0391Z" fill="#FAFAFA"/>
<path id="Vector_29" d="M81.359 79.0234H66.743C66.5475 79.0234 66.389 79.1819 66.389 79.3774V79.9084C66.389 80.1039 66.5475 80.2624 66.743 80.2624H81.359C81.5545 80.2624 81.713 80.1039 81.713 79.9084V79.3774C81.713 79.1819 81.5545 79.0234 81.359 79.0234Z" fill="#FAFAFA"/>
<path id="Vector_30" d="M81.359 82.0078H66.743C66.5475 82.0078 66.389 82.1663 66.389 82.3618V82.8928C66.389 83.0883 66.5475 83.2468 66.743 83.2468H81.359C81.5545 83.2468 81.713 83.0883 81.713 82.8928V82.3618C81.713 82.1663 81.5545 82.0078 81.359 82.0078Z" fill="#FAFAFA"/>
<path id="Vector_31" d="M78.767 84.9922H66.743C66.5475 84.9922 66.389 85.1507 66.389 85.3462V85.8772C66.389 86.0727 66.5475 86.2312 66.743 86.2312H78.767C78.9625 86.2312 79.121 86.0727 79.121 85.8772V85.3462C79.121 85.1507 78.9625 84.9922 78.767 84.9922Z" fill="#FAFAFA"/>
<path id="Vector_32" d="M72.353 87.9766H66.743C66.5475 87.9766 66.389 88.1351 66.389 88.3306V88.8616C66.389 89.0571 66.5475 89.2156 66.743 89.2156H72.353C72.5485 89.2156 72.707 89.0571 72.707 88.8616V88.3306C72.707 88.1351 72.5485 87.9766 72.353 87.9766Z" fill="#FAFAFA"/>
<path id="Vector_33" d="M86.45 64H64.133L74 71.851L89.129 77.551V66.673C89.1274 65.9635 88.8445 65.2837 88.3422 64.7825C87.84 64.2814 87.1595 64 86.45 64Z" fill="#C7D9E5"/>
<path id="Vector_34" opacity="0.4" d="M86.45 64H64.133L74 71.851L89.129 77.551V66.673C89.1274 65.9635 88.8445 65.2837 88.3422 64.7825C87.84 64.2814 87.1595 64 86.45 64Z" fill="black"/>
<path id="Vector_35" d="M85.475 68.0469H69.146C68.9008 68.0469 68.702 68.2457 68.702 68.4909V69.3189C68.702 69.5641 68.9008 69.7629 69.146 69.7629H85.475C85.7202 69.7629 85.919 69.5641 85.919 69.3189V68.4909C85.919 68.2457 85.7202 68.0469 85.475 68.0469Z" fill="#FAFAFA"/>
<path id="Vector_36" d="M125.045 85.2568V69.5608C125.045 68.3579 124.07 67.3828 122.867 67.3828H95.612C94.4091 67.3828 93.434 68.3579 93.434 69.5608V85.2568C93.434 86.4597 94.4091 87.4348 95.612 87.4348H122.867C124.07 87.4348 125.045 86.4597 125.045 85.2568Z" fill="#C7D9E5"/>
<path id="Vector_37" d="M130.022 80.2802V64.5843C130.022 63.3814 129.047 62.4062 127.844 62.4062H100.589C99.3861 62.4062 98.411 63.3814 98.411 64.5843V80.2802C98.411 81.4831 99.3861 82.4582 100.589 82.4582H127.844C129.047 82.4582 130.022 81.4831 130.022 80.2802Z" fill="#C7D9E5"/>
<path id="Vector_38" opacity="0.5" d="M130.022 80.2802V64.5843C130.022 63.3814 129.047 62.4062 127.844 62.4062H100.589C99.3861 62.4062 98.411 63.3814 98.411 64.5843V80.2802C98.411 81.4831 99.3861 82.4582 100.589 82.4582H127.844C129.047 82.4582 130.022 81.4831 130.022 80.2802Z" fill="white"/>
<path id="Vector_39" d="M127.256 74.9054V65.2424C127.256 64.7073 126.822 64.2734 126.287 64.2734H117.38C116.845 64.2734 116.411 64.7073 116.411 65.2424V74.9054C116.411 75.4406 116.845 75.8744 117.38 75.8744H126.287C126.822 75.8744 127.256 75.4406 127.256 74.9054Z" fill="#C7D9E5"/>
<path id="Vector_40" opacity="0.7" d="M127.256 74.9054V65.2424C127.256 64.7073 126.822 64.2734 126.287 64.2734H117.38C116.845 64.2734 116.411 64.7073 116.411 65.2424V74.9054C116.411 75.4406 116.845 75.8744 117.38 75.8744H126.287C126.822 75.8744 127.256 75.4406 127.256 74.9054Z" fill="white"/>
<path id="Vector_41" d="M114.713 79.5777V72.1737C114.713 71.7628 114.38 71.4297 113.969 71.4297H107.144C106.733 71.4297 106.4 71.7628 106.4 72.1737V79.5777C106.4 79.9886 106.733 80.3217 107.144 80.3217H113.969C114.38 80.3217 114.713 79.9886 114.713 79.5777Z" fill="#C7D9E5"/>
<path id="Vector_42" opacity="0.3" d="M114.713 79.5777V72.1737C114.713 71.7628 114.38 71.4297 113.969 71.4297H107.144C106.733 71.4297 106.4 71.7628 106.4 72.1737V79.5777C106.4 79.9886 106.733 80.3217 107.144 80.3217H113.969C114.38 80.3217 114.713 79.9886 114.713 79.5777Z" fill="white"/>
<path id="Vector_43" d="M110.555 32.6349V28.6359C110.555 27.4131 109.564 26.4219 108.341 26.4219L35.102 26.4219C33.8792 26.4219 32.888 27.4131 32.888 28.6359V32.6349C32.888 33.8576 33.8792 34.8489 35.102 34.8489L108.341 34.8489C109.564 34.8489 110.555 33.8576 110.555 32.6349Z" fill="#C7D9E5"/>
<path id="Vector_44" opacity="0.5" d="M110.555 32.6349V28.6359C110.555 27.4131 109.564 26.4219 108.341 26.4219L35.102 26.4219C33.8792 26.4219 32.888 27.4131 32.888 28.6359V32.6349C32.888 33.8576 33.8792 34.8489 35.102 34.8489L108.341 34.8489C109.564 34.8489 110.555 33.8576 110.555 32.6349Z" fill="white"/>
<path id="Vector_45" d="M96.698 36.2526V33.3516H75.623V36.2526H96.698Z" fill="#C7D9E5"/>
<path id="Vector_46" opacity="0.5" d="M96.698 36.2526V33.3516H75.623V36.2526H96.698Z" fill="white"/>
<path id="Vector_47" d="M118.112 20.1818V16.1828C118.112 14.96 117.121 13.9688 115.898 13.9688L42.659 13.9688C41.4362 13.9688 40.445 14.96 40.445 16.1828V20.1818C40.445 21.4045 41.4362 22.3958 42.659 22.3958L115.898 22.3958C117.121 22.3958 118.112 21.4045 118.112 20.1818Z" fill="#C7D9E5"/>
</g>
<g id="freepik--Character--inject-66">
<path id="Vector_48" d="M39.608 58.2789C39.344 58.8789 39.053 59.5269 38.798 60.1599C38.543 60.7929 38.279 61.4439 38.048 62.0919C37.574 63.3551 37.194 64.6516 36.911 65.9709L36.824 66.4509L36.794 66.6309C36.794 66.6819 36.794 66.7479 36.776 66.8079C36.7646 67.1 36.7706 67.3925 36.794 67.6839C36.851 68.3169 36.953 68.9949 37.094 69.6729C37.346 71.0319 37.667 72.4329 37.994 73.8129L36.455 74.4129C35.7376 73.1051 35.1266 71.7417 34.628 70.3359C34.3653 69.6042 34.1528 68.8555 33.992 68.0949C33.9019 67.6741 33.8457 67.2467 33.824 66.8169C33.824 66.6969 33.824 66.5829 33.824 66.4539C33.824 66.3249 33.824 66.1809 33.845 66.0969L33.905 65.4969C33.9946 64.7241 34.1319 63.9577 34.316 63.2019C34.484 62.4519 34.7 61.7229 34.916 61.0029C35.132 60.2829 35.402 59.5749 35.687 58.8789C35.828 58.5309 35.987 58.1859 36.125 57.8409C36.263 57.4959 36.425 57.1659 36.617 56.7969L39.608 58.2789Z" fill="#E4897B"/>
<path id="Vector_49" d="M37.913 73.4062L39.083 74.5492L36.53 75.7492C36.53 75.7492 35.912 74.6663 36.341 73.6883L37.913 73.4062Z" fill="#E4897B"/>
<path id="Vector_50" d="M40.028 76.2557L37.871 77.1377L36.533 75.7427L39.083 74.5547L40.028 76.2557Z" fill="#E4897B"/>
<path id="Vector_51" opacity="0.4" d="M83.723 75.0261C79.4783 74.5495 75.4702 72.8251 72.2053 70.0709C68.9405 67.3167 66.5656 63.6563 65.3807 59.5525C64.1959 55.4487 64.2544 51.0858 65.5488 47.0153C66.8432 42.9447 69.3154 39.3493 72.6529 36.6836C75.9904 34.0179 80.0433 32.4016 84.2992 32.0389C88.5552 31.6763 92.8231 32.5836 96.5635 34.6462C100.304 36.7089 103.349 39.8341 105.313 43.627C107.278 47.4199 108.073 51.71 107.6 55.9551C107.285 58.7755 106.418 61.5063 105.048 63.9914C103.677 66.4765 101.831 68.6672 99.6133 70.4383C97.3959 72.2094 94.8512 73.5261 92.1247 74.3133C89.3981 75.1005 86.5432 75.3427 83.723 75.0261Z" fill="#FAFAFA"/>
<path id="Vector_52" opacity="0.4" d="M99.437 36.5383L66.587 62.7853C66.449 62.4853 66.314 62.1853 66.188 61.8853C65.3645 59.9264 64.8377 57.8556 64.625 55.7413L92.999 33.0703C95.3285 33.8474 97.5065 35.0206 99.437 36.5383Z" fill="#FAFAFA"/>
<path id="Vector_53" opacity="0.4" d="M107.018 48.0378L76.133 72.7128C73.1989 71.1833 70.6562 68.9989 68.702 66.3288L102.425 39.3828C104.599 41.8779 106.17 44.8391 107.018 48.0378Z" fill="#FAFAFA"/>
<path id="Vector_54" d="M61.817 45.3013L61.532 45.2052C62.0256 43.7488 62.646 42.3384 63.386 40.9903L63.647 41.1343C62.9167 42.4673 62.3044 43.8616 61.817 45.3013ZM65.459 38.2993L65.216 38.1223C67.6814 34.7886 70.9081 32.0927 74.627 30.2593L74.762 30.5293C71.0853 32.3438 67.8957 35.0109 65.459 38.3083V38.2993ZM98.336 30.9402C97.3557 30.4144 96.3414 29.9544 95.3 29.5633L95.408 29.2812C96.4596 29.6816 97.4838 30.1506 98.474 30.6853L98.336 30.9402Z" fill="#C7D9E5"/>
<path id="Vector_55" opacity="0.3" d="M61.817 45.3013L61.532 45.2052C62.0256 43.7488 62.646 42.3384 63.386 40.9903L63.647 41.1343C62.9167 42.4673 62.3044 43.8616 61.817 45.3013ZM65.459 38.2993L65.216 38.1223C67.6814 34.7886 70.9081 32.0927 74.627 30.2593L74.762 30.5293C71.0853 32.3438 67.8957 35.0109 65.459 38.3083V38.2993ZM98.336 30.9402C97.3557 30.4144 96.3414 29.9544 95.3 29.5633L95.408 29.2812C96.4596 29.6816 97.4838 30.1506 98.474 30.6853L98.336 30.9402Z" fill="black"/>
<path id="Vector_56" d="M108.461 42.5232C105.683 36.7618 100.795 32.2903 94.809 30.0357C88.8234 27.7811 82.1998 27.9164 76.3112 30.4134C70.4226 32.9104 65.7207 37.5776 63.1803 43.4476C60.6398 49.3176 60.4557 55.9401 62.666 61.9422C60.662 62.6442 58.682 63.3972 56.714 64.1742C53.876 65.3002 51.064 66.4762 48.278 67.7022C45.494 68.9352 42.722 70.1922 39.977 71.5062C38.6 72.1512 37.241 72.8322 35.87 73.4922C35.1568 73.7987 34.5106 74.242 33.968 74.7972C33.6744 75.1046 33.4158 75.4437 33.197 75.8082C32.93 76.2393 32.7279 76.7073 32.597 77.1972C32.3713 78.08 32.4689 79.0145 32.8722 79.8316C33.2755 80.6487 33.9579 81.2945 34.796 81.6522C35.2614 81.8474 35.7524 81.9747 36.254 82.0302C36.6776 82.0782 37.1054 82.0782 37.529 82.0302C38.2989 81.9367 39.0429 81.6931 39.719 81.3132C41.078 80.6262 42.446 79.9632 43.796 79.2582C46.496 77.8812 49.196 76.4442 51.863 74.9862C54.53 73.5282 57.2 72.0012 59.804 70.4352C61.604 69.3462 63.422 68.2332 65.204 67.0692C68.6259 72.4712 73.9949 76.3496 80.1984 77.9009C86.402 79.4521 92.9646 78.5572 98.5264 75.4017C104.088 72.2461 108.223 67.0718 110.073 60.9508C111.924 54.8299 111.349 48.2316 108.467 42.5232H108.461ZM94.823 71.1822C91.3366 72.9031 87.4182 73.5515 83.5633 73.0456C79.7084 72.5396 76.09 70.9019 73.1658 68.3397C70.2416 65.7774 68.1428 62.4055 67.1348 58.6505C66.1268 54.8954 66.2549 50.9258 67.5029 47.2436C68.7508 43.5613 71.0626 40.3318 74.146 37.9633C77.2293 35.5949 80.9457 34.1939 84.8252 33.9375C88.7047 33.6811 92.5732 34.5809 95.9414 36.5229C99.3096 38.465 102.026 41.3622 103.748 44.8482C104.891 47.1633 105.568 49.6809 105.738 52.2573C105.908 54.8338 105.569 57.4185 104.74 59.8639C103.912 62.3093 102.609 64.5675 100.908 66.5096C99.2059 68.4516 97.1384 70.0393 94.823 71.1822Z" fill="#C7D9E5"/>
<path id="Vector_57" opacity="0.3" d="M108.461 42.5232C105.683 36.7618 100.795 32.2903 94.809 30.0357C88.8234 27.7811 82.1998 27.9164 76.3112 30.4134C70.4226 32.9104 65.7207 37.5776 63.1803 43.4476C60.6398 49.3176 60.4557 55.9401 62.666 61.9422C60.662 62.6442 58.682 63.3972 56.714 64.1742C53.876 65.3002 51.064 66.4762 48.278 67.7022C45.494 68.9352 42.722 70.1922 39.977 71.5062C38.6 72.1512 37.241 72.8322 35.87 73.4922C35.1568 73.7987 34.5106 74.242 33.968 74.7972C33.6744 75.1046 33.4158 75.4437 33.197 75.8082C32.93 76.2393 32.7279 76.7073 32.597 77.1972C32.3713 78.08 32.4689 79.0145 32.8722 79.8316C33.2755 80.6487 33.9579 81.2945 34.796 81.6522C35.2614 81.8474 35.7524 81.9747 36.254 82.0302C36.6776 82.0782 37.1054 82.0782 37.529 82.0302C38.2989 81.9367 39.0429 81.6931 39.719 81.3132C41.078 80.6262 42.446 79.9632 43.796 79.2582C46.496 77.8812 49.196 76.4442 51.863 74.9862C54.53 73.5282 57.2 72.0012 59.804 70.4352C61.604 69.3462 63.422 68.2332 65.204 67.0692C68.6259 72.4712 73.9949 76.3496 80.1984 77.9009C86.402 79.4521 92.9646 78.5572 98.5264 75.4017C104.088 72.2461 108.223 67.0718 110.073 60.9508C111.924 54.8299 111.349 48.2316 108.467 42.5232H108.461ZM94.823 71.1822C91.3366 72.9031 87.4182 73.5515 83.5633 73.0456C79.7084 72.5396 76.09 70.9019 73.1658 68.3397C70.2416 65.7774 68.1428 62.4055 67.1348 58.6505C66.1268 54.8954 66.2549 50.9258 67.5029 47.2436C68.7508 43.5613 71.0626 40.3318 74.146 37.9633C77.2293 35.5949 80.9457 34.1939 84.8252 33.9375C88.7047 33.6811 92.5732 34.5809 95.9414 36.5229C99.3096 38.465 102.026 41.3622 103.748 44.8482C104.891 47.1633 105.568 49.6809 105.738 52.2573C105.908 54.8338 105.569 57.4185 104.74 59.8639C103.912 62.3093 102.609 64.5675 100.908 66.5096C99.2059 68.4516 97.1384 70.0393 94.823 71.1822Z" fill="black"/>
<path id="Vector_58" d="M47.9 47.5632C47.9 47.7402 47.993 47.8842 48.11 47.8842C48.227 47.8842 48.32 47.7402 48.32 47.5632C48.32 47.3862 48.227 47.2422 48.11 47.2422C47.993 47.2422 47.9 47.3982 47.9 47.5632Z" fill="#263238"/>
<path id="Vector_59" d="M47.984 47.8906C48.1964 48.434 48.482 48.9457 48.833 49.4116C48.7117 49.4984 48.5728 49.5577 48.4261 49.5851C48.2795 49.6126 48.1286 49.6076 47.984 49.5706V47.8906Z" fill="#DE5753"/>
<path id="Vector_60" d="M47.279 46.5778C47.2623 46.5778 47.2458 46.574 47.2307 46.5668C47.2156 46.5595 47.2024 46.5489 47.192 46.5358C47.1764 46.5129 47.1701 46.4849 47.1746 46.4575C47.1791 46.4301 47.1939 46.4055 47.216 46.3888C47.3481 46.2886 47.5025 46.2218 47.666 46.1941C47.8295 46.1664 47.9973 46.1787 48.155 46.2298C48.1692 46.2337 48.1824 46.2404 48.1938 46.2497C48.2051 46.259 48.2144 46.2706 48.2211 46.2837C48.2277 46.2968 48.2315 46.3111 48.2323 46.3258C48.233 46.3404 48.2307 46.3551 48.2254 46.3688C48.2201 46.3825 48.2121 46.395 48.2017 46.4053C48.1913 46.4157 48.1788 46.4238 48.1651 46.4291C48.1514 46.4344 48.1368 46.4367 48.1221 46.436C48.1075 46.4352 48.0931 46.4314 48.08 46.4248C47.9547 46.3864 47.822 46.3786 47.6931 46.4021C47.5641 46.4256 47.4427 46.4796 47.339 46.5598C47.3212 46.5716 47.3003 46.5779 47.279 46.5778Z" fill="#263238"/>
<path id="Vector_61" d="M41.84 48.8984C42.14 50.5094 42.47 53.4644 41.342 54.5414C41.342 54.5414 41.783 56.1764 44.78 56.1764C48.08 56.1764 46.352 54.5414 46.352 54.5414C44.552 54.1094 44.603 52.7774 44.915 51.5234L41.84 48.8984Z" fill="#E4897B"/>
<path id="Vector_62" d="M39.995 55.3919C40.352 54.8369 39.752 53.4899 39.752 53.4899C39.752 53.4899 45.056 52.1549 47.225 54.2039C47.675 54.6269 47.177 55.2509 47.177 55.2509L39.995 55.3919Z" fill="#C7D9E5"/>
<path id="Vector_63" opacity="0.1" d="M39.995 55.3919C40.352 54.8369 39.752 53.4899 39.752 53.4899C39.752 53.4899 45.056 52.1549 47.225 54.2039C47.675 54.6269 47.177 55.2509 47.177 55.2509L39.995 55.3919Z" fill="black"/>
<path id="Vector_64" d="M31.22 116.606C30.941 116.606 30.494 116.141 30.362 115.967C30.3563 115.958 30.3533 115.948 30.3533 115.938C30.3533 115.928 30.3563 115.918 30.362 115.91C30.3669 115.901 30.3739 115.894 30.3823 115.89C30.3908 115.885 30.4003 115.883 30.41 115.883C30.443 115.883 31.178 115.949 31.379 116.21C31.4009 116.237 31.4165 116.269 31.4248 116.304C31.433 116.338 31.4338 116.373 31.427 116.408C31.4244 116.452 31.408 116.495 31.38 116.53C31.3521 116.565 31.314 116.59 31.271 116.603L31.22 116.606ZM30.524 116.006C30.743 116.258 31.094 116.543 31.244 116.507C31.244 116.507 31.304 116.492 31.322 116.396C31.326 116.376 31.3253 116.355 31.3201 116.335C31.3149 116.316 31.3053 116.297 31.292 116.282C31.0698 116.114 30.8024 116.015 30.524 116V116.006Z" fill="#C7D9E5"/>
<path id="Vector_65" d="M30.557 115.994C30.5031 115.999 30.4489 115.999 30.395 115.994C30.3855 115.993 30.3765 115.99 30.369 115.984C30.3615 115.978 30.356 115.97 30.353 115.961C30.3488 115.952 30.3466 115.943 30.3466 115.934C30.3466 115.924 30.3488 115.915 30.353 115.907C30.374 115.889 30.815 115.43 31.148 115.43C31.1879 115.429 31.2274 115.436 31.2642 115.452C31.3009 115.467 31.3339 115.491 31.361 115.52C31.3909 115.545 31.4113 115.579 31.4189 115.617C31.4266 115.656 31.421 115.695 31.403 115.73C31.316 115.898 30.857 115.994 30.557 115.994ZM30.518 115.889C30.818 115.889 31.253 115.796 31.325 115.664C31.325 115.664 31.346 115.625 31.298 115.577C31.2805 115.558 31.2591 115.543 31.2353 115.533C31.2115 115.523 31.1858 115.519 31.16 115.52C30.9141 115.576 30.6906 115.705 30.518 115.889Z" fill="#C7D9E5"/>
<path id="Vector_66" d="M51.017 123.412C50.7896 123.411 50.5628 123.39 50.339 123.349C50.3279 123.347 50.3179 123.341 50.3107 123.332C50.3036 123.324 50.2998 123.313 50.3 123.301C50.2983 123.291 50.2997 123.28 50.304 123.271C50.3082 123.261 50.3152 123.253 50.324 123.247C50.357 123.229 51.125 122.788 51.494 122.89C51.5282 122.898 51.5605 122.913 51.5889 122.933C51.6172 122.954 51.6411 122.98 51.659 123.01C51.6825 123.044 51.6951 123.083 51.6951 123.124C51.6951 123.165 51.6825 123.205 51.659 123.238C51.572 123.373 51.299 123.412 51.017 123.412ZM50.51 123.271C50.918 123.331 51.476 123.328 51.578 123.184C51.593 123.166 51.605 123.133 51.578 123.07C51.5551 123.033 51.5185 123.006 51.476 122.995C51.242 122.935 50.777 123.133 50.51 123.271Z" fill="#C7D9E5"/>
<path id="Vector_67" d="M50.351 123.35C50.3412 123.353 50.3308 123.353 50.321 123.35C50.3127 123.345 50.3062 123.337 50.3024 123.328C50.2987 123.319 50.2978 123.309 50.3 123.299C50.3203 122.987 50.4402 122.69 50.642 122.45C50.6828 122.415 50.7307 122.389 50.7825 122.374C50.8343 122.359 50.8887 122.356 50.942 122.363C51.086 122.363 51.128 122.45 51.137 122.507C51.176 122.756 50.651 123.233 50.384 123.353L50.351 123.35ZM50.888 122.45C50.822 122.45 50.758 122.473 50.708 122.516C50.5384 122.706 50.4333 122.944 50.408 123.197C50.678 123.032 51.038 122.66 51.008 122.51C51.008 122.51 51.008 122.459 50.906 122.45H50.888Z" fill="#C7D9E5"/>
<path id="Vector_68" d="M47.927 123.298H50.132L50.351 118.195H48.146L47.927 123.298Z" fill="#E4897B"/>
<path id="Vector_69" d="M28.292 114.54L30.134 115.746L34.202 112.311L32.357 111.102L28.292 114.54Z" fill="#E4897B"/>
<path id="Vector_70" d="M30.437 115.628L28.523 114.059C28.4892 114.031 28.4468 114.016 28.403 114.016C28.3592 114.016 28.3168 114.031 28.283 114.059L26.705 115.298C26.6669 115.328 26.6361 115.367 26.6149 115.41C26.5938 115.454 26.5828 115.502 26.5828 115.551C26.5828 115.6 26.5938 115.648 26.6149 115.692C26.6361 115.736 26.6669 115.774 26.705 115.805C27.383 116.342 27.74 116.57 28.583 117.26C29.102 117.683 30.383 118.979 31.106 119.564C31.829 120.149 32.492 119.519 32.252 119.216C31.175 117.851 30.752 116.684 30.629 115.961C30.6077 115.83 30.5395 115.711 30.437 115.628Z" fill="#263238"/>
<path id="Vector_71" d="M50.117 123.047H47.717C47.6732 123.047 47.6308 123.062 47.5965 123.089C47.5622 123.116 47.5381 123.154 47.528 123.197L47.093 125.156C47.0821 125.203 47.0821 125.253 47.093 125.3C47.104 125.348 47.1256 125.392 47.1563 125.43C47.1869 125.468 47.2258 125.498 47.2699 125.519C47.314 125.539 47.3623 125.55 47.411 125.549C48.278 125.534 49.532 125.483 50.624 125.483C51.899 125.483 53.003 125.552 54.497 125.552C55.397 125.552 55.655 124.637 55.274 124.556C53.552 124.178 52.142 124.139 50.654 123.218C50.4943 123.112 50.3084 123.053 50.117 123.047Z" fill="#263238"/>
<path id="Vector_72" d="M36.998 55.2002C35.087 56.1002 33.998 62.1302 33.998 62.1302L38.669 63.9932C39.3527 62.3237 39.9054 60.6035 40.322 58.8482C40.964 56.0702 38.954 54.2702 36.998 55.2002Z" fill="#263238"/>
<path id="Vector_73" d="M39.476 58.5973C38.321 59.7673 37.793 62.0593 37.562 63.5503L38.681 63.9973C39.3453 62.3752 39.8868 60.7055 40.301 59.0023C40.202 58.3663 39.956 58.1113 39.476 58.5973Z" fill="#203048"/>
<path id="Vector_74" d="M49.742 55.1599C49.742 55.1599 52.088 57.8119 49.874 74.2099H38.087C38.006 72.4099 39.143 63.5749 37.397 55.0489C38.6996 54.7963 40.0175 54.6299 41.342 54.5509C43.0105 54.4518 44.6835 54.4518 46.352 54.5509C47.496 54.666 48.6294 54.8696 49.742 55.1599Z" fill="#263238"/>
<path id="Vector_75" d="M50.819 61.5246L48.833 58.1016C48.4496 59.6987 48.2931 61.3418 48.368 62.9826C48.422 64.1586 49.499 68.5146 50.468 69.1506C50.7251 66.617 50.8423 64.0711 50.819 61.5246Z" fill="#203048"/>
<path id="Vector_76" d="M51.095 57.5C51.395 58.958 51.695 60.452 52.016 61.916C52.337 63.38 52.67 64.85 53.057 66.269C53.156 66.62 53.249 66.98 53.357 67.316L53.438 67.574L53.477 67.703V67.688C53.456 67.661 53.432 67.658 53.45 67.688C53.5733 67.8227 53.7309 67.9212 53.906 67.973C54.1896 68.0785 54.4817 68.1598 54.779 68.216C56.1974 68.4408 57.6335 68.5342 59.069 68.495L59.354 70.127C58.952 70.256 58.577 70.349 58.181 70.442C57.785 70.535 57.395 70.613 56.996 70.673C56.1705 70.8104 55.3335 70.8667 54.497 70.841C54.032 70.8285 53.5696 70.7682 53.117 70.661C52.5415 70.5351 52.0007 70.2842 51.533 69.926C51.2275 69.6794 50.9754 69.3731 50.792 69.026C50.744 68.936 50.702 68.834 50.663 68.747L50.609 68.606L50.498 68.306C50.345 67.925 50.219 67.55 50.081 67.175C49.574 65.675 49.151 64.16 48.779 62.648C48.407 61.136 48.086 59.627 47.819 58.076L51.095 57.5Z" fill="#E4897B"/>
<path id="Vector_77" d="M46.799 56.7636C46.178 58.7766 48.695 64.7796 48.695 64.7796L53.708 63.5196C53.708 63.5196 53.516 60.3996 52.373 57.9246C50.651 54.1926 47.543 54.3486 46.799 56.7636Z" fill="#263238"/>
<path id="Vector_78" d="M59.027 68.5005L61.523 68.4375L60.323 71.0355C60.323 71.0355 59.306 71.1705 58.472 69.7995L57.593 68.7495L58.604 68.5485C58.7432 68.5192 58.8848 68.5031 59.027 68.5005Z" fill="#E4897B"/>
<path id="Vector_79" d="M63.098 68.9205L61.67 71.0745L60.323 71.0355L61.523 68.4375L63.098 68.9205Z" fill="#E4897B"/>
<path id="Vector_80" d="M50.351 118.195L50.237 120.826H48.032L48.146 118.195H50.351Z" fill="#CE6F64"/>
<path id="Vector_81" d="M32.357 111.102L34.202 112.311L32.102 114.081L30.26 112.875L32.357 111.102Z" fill="#CE6F64"/>
<path id="Vector_82" d="M41.978 47.1874C42.11 49.3684 42.077 50.6554 43.178 51.7744C44.834 53.4634 47.531 52.4644 48.053 50.2744C48.524 48.3124 48.23 45.0724 46.094 44.2024C45.6227 44.0122 45.1108 43.9448 44.6063 44.0066C44.1018 44.0684 43.6213 44.2574 43.2099 44.5558C42.7984 44.8542 42.4695 45.2522 42.2541 45.7125C42.0386 46.1728 41.9436 46.6804 41.978 47.1874Z" fill="#E4897B"/>
<path id="Vector_83" d="M39.41 46.801C39.953 48.79 41.231 51.082 42.884 51.229C44.936 51.409 45.863 49.288 46.133 47.098C47.363 46.255 46.718 45.328 47.951 45.211C49.535 45.061 49.028 42.163 46.943 41.698C46.943 41.698 47.642 43.003 46.175 42.343C44.7799 41.68 43.2299 41.4113 41.693 41.566C41.693 41.566 43.565 42.502 41.735 42.919C39.905 43.336 39.359 44.464 40.202 45.145C40.202 45.148 39.053 45.493 39.41 46.801Z" fill="#263238"/>
<path id="Vector_84" d="M44.882 47.5454C44.9223 48.0875 45.1406 48.6012 45.503 49.0064C45.983 49.5374 46.484 49.2074 46.568 48.5624C46.646 47.9834 46.487 47.0084 45.899 46.7144C45.311 46.4204 44.843 46.8914 44.882 47.5454Z" fill="#E4897B"/>
<path id="Vector_85" d="M45.692 74.2061C45.692 74.2061 47.84 89.7611 46.148 95.9951C43.466 105.865 33.212 114.196 33.212 114.196L29.735 111.916C29.735 111.916 38.468 104.881 39.536 96.6161C40.496 89.1971 38.087 80.2241 38.087 74.2031L45.692 74.2061Z" fill="#C7D9E5"/>
<path id="Vector_86" opacity="0.1" d="M45.692 74.2061C45.692 74.2061 47.84 89.7611 46.148 95.9951C43.466 105.865 33.212 114.196 33.212 114.196L29.735 111.916C29.735 111.916 38.468 104.881 39.536 96.6161C40.496 89.1971 38.087 80.2241 38.087 74.2031L45.692 74.2061Z" fill="black"/>
<path id="Vector_87" d="M46.58 83.1047C46.0082 82.4496 45.3786 81.8472 44.699 81.3047C45.065 86.3537 45.365 93.8327 45.032 99.1457C45.4797 98.1272 45.8527 97.0774 46.148 96.0047C46.973 92.9597 46.886 87.7007 46.58 83.1047Z" fill="#C7D9E5"/>
<path id="Vector_88" opacity="0.3" d="M46.58 83.1047C46.0082 82.4496 45.3786 81.8472 44.699 81.3047C45.065 86.3537 45.365 93.8327 45.032 99.1457C45.4797 98.1272 45.8527 97.0774 46.148 96.0047C46.973 92.9597 46.886 87.7007 46.58 83.1047Z" fill="black"/>
<path id="Vector_89" d="M34.613 113.419C34.628 113.419 33.266 114.319 33.266 114.319L29.468 111.829L30.668 110.836L34.613 113.419Z" fill="#C7D9E5"/>
<path id="Vector_90" opacity="0.3" d="M34.613 113.419C34.628 113.419 33.266 114.319 33.266 114.319L29.468 111.829L30.668 110.836L34.613 113.419Z" fill="black"/>
<path id="Vector_91" d="M49.874 74.2109C49.874 74.2109 53.192 88.2809 53.426 95.0039C53.69 102.54 51.059 120.318 51.059 120.318H47.324C47.324 120.318 46.865 102.402 46.7 95.5379C46.517 88.0529 42.125 74.2109 42.125 74.2109H49.874Z" fill="#C7D9E5"/>
<path id="Vector_92" opacity="0.1" d="M49.874 74.2109C49.874 74.2109 53.192 88.2809 53.426 95.0039C53.69 102.54 51.059 120.318 51.059 120.318H47.324C47.324 120.318 46.865 102.402 46.7 95.5379C46.517 88.0529 42.125 74.2109 42.125 74.2109H49.874Z" fill="black"/>
<path id="Vector_93" d="M51.776 118.828C51.794 118.828 51.566 120.376 51.566 120.376H47.024L46.901 118.993L51.776 118.828Z" fill="#C7D9E5"/>
<path id="Vector_94" opacity="0.3" d="M51.776 118.828C51.794 118.828 51.566 120.376 51.566 120.376H47.024L46.901 118.993L51.776 118.828Z" fill="black"/>
</g>
<g id="freepik--character--inject-66">
<path id="Vector_95" d="M107.3 60.6797C107.555 60.9197 107.756 61.1237 107.966 61.3517C108.176 61.5797 108.374 61.8017 108.566 62.0327C108.956 62.4917 109.322 62.9747 109.676 63.4607C110.383 64.4356 111.012 65.4648 111.557 66.5387L111.668 66.7577C111.722 66.8637 111.767 66.9741 111.803 67.0877C111.875 67.3072 111.92 67.535 111.935 67.7657C111.955 68.1724 111.899 68.5793 111.77 68.9657C111.551 69.6075 111.225 70.2079 110.807 70.7417C110.053 71.7098 109.164 72.5646 108.167 73.2797L107.42 72.4217C107.771 72.0107 108.137 71.5697 108.464 71.1287C108.797 70.7014 109.098 70.2502 109.364 69.7787C109.613 69.3673 109.797 68.9201 109.91 68.4527C109.949 68.2855 109.956 68.1125 109.931 67.9427C109.92 67.8856 109.902 67.8301 109.877 67.7777C109.866 67.7547 109.853 67.7326 109.838 67.7117L109.742 67.5497C109.163 66.6063 108.536 65.694 107.861 64.8167C107.528 64.3757 107.171 63.9527 106.811 63.5357C106.634 63.3257 106.451 63.1217 106.268 62.9177C106.085 62.7137 105.887 62.5097 105.728 62.3507L107.3 60.6797Z" fill="#E4897B"/>
<path id="Vector_96" d="M107.708 72.1707L105.467 71.8047L106.64 73.7667C106.64 73.7667 108.083 73.7157 108.494 72.8667L107.708 72.1707Z" fill="#E4897B"/>
<path id="Vector_97" d="M103.811 72.7107L104.879 74.3037L106.64 73.7667L105.467 71.8047L103.811 72.7107Z" fill="#E4897B"/>
<path id="Vector_98" d="M107.6 123.381C107.448 123.394 107.296 123.353 107.171 123.264C107.133 123.229 107.106 123.184 107.09 123.135C107.075 123.085 107.073 123.033 107.084 122.982C107.086 122.95 107.097 122.919 107.116 122.893C107.134 122.866 107.159 122.845 107.189 122.832C107.45 122.715 108.134 123.153 108.212 123.204C108.221 123.21 108.228 123.218 108.232 123.228C108.235 123.238 108.236 123.248 108.233 123.258C108.232 123.269 108.227 123.278 108.22 123.286C108.213 123.293 108.204 123.298 108.194 123.3C108 123.35 107.8 123.377 107.6 123.381ZM107.3 122.916C107.278 122.913 107.256 122.913 107.234 122.916C107.221 122.922 107.21 122.932 107.202 122.944C107.194 122.957 107.189 122.971 107.189 122.985C107.181 123.019 107.182 123.054 107.191 123.087C107.201 123.12 107.219 123.15 107.243 123.174C107.357 123.276 107.651 123.291 108.044 123.213C107.819 123.065 107.566 122.963 107.3 122.916Z" fill="#C7D9E5"/>
<path id="Vector_99" d="M108.2 123.295H108.173C107.96 123.172 107.549 122.695 107.6 122.434C107.61 122.393 107.632 122.356 107.665 122.329C107.697 122.302 107.738 122.286 107.78 122.284C107.82 122.278 107.862 122.282 107.901 122.294C107.94 122.307 107.975 122.328 108.005 122.356C108.251 122.572 108.254 123.22 108.254 123.256C108.253 123.265 108.251 123.274 108.246 123.282C108.241 123.29 108.235 123.296 108.227 123.301L108.2 123.295ZM107.816 122.395H107.792C107.726 122.395 107.711 122.431 107.705 122.458C107.675 122.611 107.93 122.977 108.143 123.148C108.148 122.896 108.076 122.649 107.936 122.44C107.918 122.423 107.897 122.411 107.873 122.403C107.85 122.395 107.825 122.392 107.801 122.395H107.816Z" fill="#C7D9E5"/>
<path id="Vector_100" d="M97.376 123.382C97.1845 123.4 96.9925 123.351 96.833 123.244C96.797 123.212 96.7692 123.172 96.752 123.127C96.7348 123.082 96.7286 123.034 96.734 122.986C96.7359 122.957 96.7452 122.928 96.7609 122.904C96.7766 122.879 96.7983 122.859 96.824 122.845C97.103 122.689 97.997 123.145 98.099 123.202C98.1083 123.208 98.1158 123.216 98.1206 123.227C98.1253 123.237 98.1272 123.248 98.126 123.259C98.1242 123.269 98.1193 123.279 98.1117 123.287C98.1042 123.294 98.0945 123.299 98.084 123.301C97.8511 123.35 97.614 123.377 97.376 123.382ZM96.977 122.917C96.9427 122.915 96.9084 122.922 96.878 122.938C96.8672 122.943 96.8581 122.951 96.8517 122.961C96.8453 122.971 96.842 122.983 96.842 122.995C96.8374 123.026 96.8405 123.058 96.8509 123.088C96.8614 123.118 96.8789 123.144 96.902 123.166C97.04 123.289 97.409 123.31 97.907 123.226C97.6166 123.071 97.3022 122.967 96.977 122.917Z" fill="#C7D9E5"/>
<path id="Vector_101" d="M98.075 123.295H98.051C97.784 123.175 97.253 122.695 97.295 122.434C97.295 122.374 97.349 122.299 97.496 122.284C97.5497 122.278 97.604 122.283 97.6556 122.299C97.7072 122.315 97.755 122.341 97.796 122.377C98.078 122.611 98.132 123.217 98.132 123.244C98.1332 123.253 98.1318 123.262 98.1281 123.27C98.1244 123.279 98.1185 123.286 98.111 123.292C98.0996 123.296 98.087 123.297 98.075 123.295ZM97.538 122.395H97.505C97.409 122.395 97.403 122.443 97.4 122.455C97.376 122.608 97.736 122.989 98 123.154C97.974 122.897 97.8692 122.655 97.7 122.461C97.6545 122.422 97.5977 122.399 97.538 122.395Z" fill="#C7D9E5"/>
<path id="Vector_102" d="M101.621 53.7891C101.534 55.1451 101.3 57.8991 102.341 58.6611C102.341 58.6611 102.152 60.0501 99.695 60.3741C96.995 60.7251 98.228 59.2011 98.228 59.2011C99.659 58.6551 99.476 57.5661 99.086 56.5701L101.621 53.7891Z" fill="#E4897B"/>
<path id="Vector_103" d="M96.032 51.3857C96.0172 51.3857 96.0025 51.3825 95.989 51.3763C95.9755 51.3701 95.9636 51.361 95.954 51.3497C95.8682 51.2479 95.7597 51.1677 95.6373 51.1156C95.5148 51.0635 95.3818 51.0409 95.249 51.0497C95.235 51.0522 95.2206 51.0519 95.2067 51.0487C95.1928 51.0455 95.1797 51.0395 95.1681 51.0311C95.1566 51.0227 95.147 51.012 95.1397 50.9997C95.1325 50.9875 95.1278 50.9738 95.126 50.9597C95.1226 50.9315 95.1304 50.903 95.1478 50.8806C95.1653 50.8581 95.1908 50.8434 95.219 50.8397C95.3884 50.8254 95.5587 50.8523 95.7154 50.9181C95.8722 50.9839 96.0106 51.0867 96.119 51.2177C96.132 51.2333 96.1403 51.2523 96.143 51.2725C96.1457 51.2926 96.1426 51.3131 96.1341 51.3316C96.1257 51.3501 96.1121 51.3659 96.0951 51.377C96.0781 51.3882 96.0583 51.3943 96.038 51.3947L96.032 51.3857Z" fill="#263238"/>
<path id="Vector_104" d="M95.564 52.7188C95.4576 53.149 95.293 53.5628 95.075 53.9487C95.1751 54.0026 95.2859 54.0338 95.3995 54.04C95.513 54.0463 95.6266 54.0274 95.732 53.9848L95.564 52.7188Z" fill="#DE5753"/>
<path id="Vector_105" d="M95.684 52.392C95.708 52.572 95.633 52.728 95.516 52.746C95.399 52.764 95.282 52.626 95.261 52.446C95.24 52.266 95.312 52.11 95.429 52.095C95.546 52.08 95.663 52.2 95.684 52.392Z" fill="#263238"/>
<path id="Vector_106" d="M95.483 52.0924L95.036 52.0234C95.036 52.0234 95.3 52.3324 95.483 52.0924Z" fill="#263238"/>
<path id="Vector_107" d="M100.547 123.252H98.297L98.147 118.047H100.397L100.547 123.252Z" fill="#E4897B"/>
<path id="Vector_108" d="M110.762 123.252H108.512L107.789 118.047H110.039L110.762 123.252Z" fill="#E4897B"/>
<path id="Vector_109" d="M108.374 123H110.9C110.943 123 110.985 123.015 111.017 123.043C111.05 123.071 111.071 123.11 111.077 123.153L111.377 125.154C111.382 125.204 111.377 125.255 111.362 125.304C111.346 125.352 111.32 125.396 111.286 125.434C111.252 125.472 111.211 125.502 111.164 125.522C111.118 125.543 111.068 125.553 111.017 125.553C110.138 125.538 109.712 125.487 108.602 125.487C107.918 125.487 106.919 125.556 105.977 125.556C105.035 125.556 104.984 124.623 105.377 124.539C107.138 124.161 107.417 123.639 108.008 123.138C108.111 123.052 108.24 123.004 108.374 123Z" fill="#263238"/>
<path id="Vector_110" d="M98.222 123H100.745C100.788 123 100.831 123.015 100.864 123.043C100.897 123.071 100.918 123.11 100.925 123.153L101.225 125.154C101.23 125.204 101.225 125.255 101.21 125.304C101.194 125.352 101.168 125.397 101.134 125.434C101.1 125.472 101.059 125.502 101.012 125.522C100.966 125.543 100.916 125.553 100.865 125.553C99.986 125.538 99.56 125.487 98.45 125.487C97.766 125.487 96.35 125.556 95.408 125.556C94.466 125.556 94.415 124.623 94.808 124.539C96.569 124.161 97.262 123.639 97.856 123.138C97.9591 123.052 98.088 123.004 98.222 123Z" fill="#263238"/>
<path id="Vector_111" d="M98.147 118.047L98.225 120.732H100.475L100.397 118.047H98.147Z" fill="#CE6F64"/>
<path id="Vector_112" d="M110.039 118.047H107.789L108.164 120.732H110.411L110.039 118.047Z" fill="#CE6F64"/>
<path id="Vector_113" d="M101.651 50.9785C101.804 53.2045 101.915 54.1435 100.949 55.4245C99.494 57.3475 96.728 57.0505 95.912 54.9145C95.177 52.9915 95.051 49.6765 97.097 48.5125C97.5471 48.2545 98.0556 48.1159 98.5744 48.1096C99.0931 48.1033 99.6048 48.2297 100.061 48.4767C100.517 48.7238 100.903 49.0833 101.181 49.5211C101.459 49.9589 101.621 50.4606 101.651 50.9785Z" fill="#E4897B"/>
<path id="Vector_114" d="M102.947 53.0454C104.195 53.7414 105.122 52.0254 105.122 52.0254C105.122 52.0254 102.884 52.2684 103.085 50.9364C103.349 49.1694 102.083 47.0214 98.909 47.2974C98.732 47.3124 98.564 47.3334 98.399 47.3604C98.0667 47.2029 97.691 47.1622 97.3327 47.245C96.9744 47.3278 96.6545 47.5291 96.425 47.8164C95.525 47.8914 94.31 48.9654 95.135 50.3844C95.1929 50.2214 95.2826 50.0714 95.399 49.9434C95.468 50.7744 96.194 52.0944 97.1 52.1814C97.295 53.3184 96.539 54.6354 96.8 55.8234C97.187 57.5364 100.076 57.9234 100.076 57.9234C99.9764 57.7095 99.9393 57.4717 99.969 57.2376C99.9987 57.0035 100.094 56.7826 100.244 56.6004C102.206 57.5004 103.499 56.6214 103.499 56.6214C102.161 56.1234 102.566 55.2354 102.566 55.2354C103.028 55.4405 103.551 55.4585 104.026 55.2857C104.501 55.1128 104.891 54.7625 105.113 54.3084C104.669 54.3295 104.228 54.2215 103.843 53.9973C103.459 53.7732 103.148 53.4426 102.947 53.0454Z" fill="#263238"/>
<path id="Vector_115" d="M97.883 52.5225C97.8882 52.7362 97.8512 52.9487 97.774 53.148C97.6967 53.3472 97.5808 53.5293 97.433 53.6835C97.037 54.0945 96.551 53.8065 96.419 53.2815C96.302 52.8075 96.368 52.0245 96.884 51.8085C96.9975 51.7639 97.1205 51.7484 97.2415 51.7633C97.3626 51.7783 97.4781 51.8233 97.5773 51.8943C97.6766 51.9652 97.7566 52.0599 97.8099 52.1696C97.8633 52.2793 97.8884 52.4006 97.883 52.5225Z" fill="#E4897B"/>
<path id="Vector_116" d="M99.752 73.2654C99.752 73.2654 100.322 88.0734 101.678 96.7674C102.77 103.793 107.621 120.209 107.621 120.209H110.687C110.687 120.209 108.158 104.354 107.603 97.4094C106.199 79.8324 109.844 76.0584 106.403 72.3984L99.752 73.2654Z" fill="#263238"/>
<path id="Vector_117" d="M102.314 77.9432C102.314 77.9432 100.928 77.7032 100.118 80.3432C100.418 85.3442 100.931 91.9802 101.678 96.7622C101.843 97.8272 102.095 99.1112 102.404 100.518C101.819 92.0702 102.314 77.9432 102.314 77.9432Z" fill="#161F33"/>
<path id="Vector_118" d="M97.361 73.5719C97.361 73.5719 94.835 89.9549 94.982 96.8099C95.135 103.941 97.748 120.21 97.748 120.21H100.787C100.787 120.21 100.307 104.364 100.574 97.3619C100.874 89.7269 103.991 72.7109 103.991 72.7109L97.361 73.5719Z" fill="#263238"/>
<path id="Vector_119" d="M111.131 120.352H107.054L106.736 118.984L111.101 119.014L111.131 120.352Z" fill="#C7D9E5"/>
<path id="Vector_120" opacity="0.2" d="M111.131 120.352H107.054L106.736 118.984L111.101 119.014L111.131 120.352Z" fill="black"/>
<path id="Vector_121" d="M106.25 58.6626C107.423 58.7766 109.205 62.1096 109.205 62.1096L106.244 64.3806C106.244 64.3806 103.793 62.2296 104.084 61.0206C104.387 59.7636 105.125 58.5576 106.25 58.6626Z" fill="#C7D9E5"/>
<path id="Vector_122" opacity="0.1" d="M106.25 58.6626C107.423 58.7766 109.205 62.1096 109.205 62.1096L106.244 64.3806C106.244 64.3806 103.793 62.2296 104.084 61.0206C104.387 59.7636 105.125 58.5576 106.25 58.6626Z" fill="black"/>
<path id="Vector_123" d="M105.365 60.0969C105.066 60.0163 104.756 59.9819 104.447 59.9949C104.29 60.3228 104.168 60.6668 104.084 61.0209C103.784 62.2209 106.244 64.3809 106.244 64.3809L106.463 64.2129L105.365 60.0969Z" fill="#C7D9E5"/>
<path id="Vector_124" opacity="0.3" d="M105.365 60.0969C105.066 60.0163 104.756 59.9819 104.447 59.9949C104.29 60.3228 104.168 60.6668 104.084 61.0209C103.784 62.2209 106.244 64.3809 106.244 64.3809L106.463 64.2129L105.365 60.0969Z" fill="black"/>
<path id="Vector_125" d="M96.356 63.2984C95.501 65.4614 94.601 67.6604 93.884 69.8294C93.836 69.9674 93.797 70.0994 93.755 70.2344L93.653 70.5674C93.6251 70.6655 93.6251 70.7694 93.653 70.8674C93.8223 71.2425 94.091 71.5641 94.43 71.7974C95.3269 72.441 96.3042 72.9644 97.337 73.3544L97.067 74.4584C95.7965 74.2909 94.5679 73.8902 93.443 73.2764C92.7507 72.9066 92.1869 72.3355 91.826 71.6384C91.6188 71.1929 91.5468 70.6964 91.619 70.2104C91.6258 70.1509 91.6358 70.0919 91.649 70.0334L91.679 69.9074L91.73 69.6794C91.766 69.5264 91.802 69.3794 91.841 69.2294C92.141 68.0294 92.525 66.8894 92.93 65.7584C93.335 64.6274 93.758 63.5114 94.235 62.3984L96.356 63.2984Z" fill="#E4897B"/>
<path id="Vector_126" d="M94.535 60.2625C94.535 60.2625 93.521 60.7755 97.361 73.5765L106.415 72.3945C105.779 68.7285 105.479 66.4575 106.25 58.6635C104.952 58.5705 103.648 58.5705 102.35 58.6635C100.968 58.7439 99.5931 58.9243 98.237 59.2035C96.5 59.5905 94.535 60.2625 94.535 60.2625Z" fill="#C7D9E5"/>
<path id="Vector_127" opacity="0.1" d="M94.535 60.2625C94.535 60.2625 93.521 60.7755 97.361 73.5765L106.415 72.3945C105.779 68.7285 105.479 66.4575 106.25 58.6635C104.952 58.5705 103.648 58.5705 102.35 58.6635C100.968 58.7439 99.5931 58.9243 98.237 59.2035C96.5 59.5905 94.535 60.2625 94.535 60.2625Z" fill="black"/>
<path id="Vector_128" d="M106.481 71.8451L107 72.5981C107.039 72.6581 106.973 72.7301 106.871 72.7451L97.376 73.9871C97.295 73.9871 97.22 73.9661 97.208 73.9151L97.022 73.1141C97.007 73.0601 97.073 73.0031 97.163 72.9911L106.331 71.7911C106.358 71.7867 106.387 71.7894 106.413 71.7988C106.439 71.8083 106.463 71.8242 106.481 71.8451Z" fill="#C7D9E5"/>
<path id="Vector_129" opacity="0.2" d="M106.481 71.8451L107 72.5981C107.039 72.6581 106.973 72.7301 106.871 72.7451L97.376 73.9871C97.295 73.9871 97.22 73.9661 97.208 73.9151L97.022 73.1141C97.007 73.0601 97.073 73.0031 97.163 72.9911L106.331 71.7911C106.358 71.7867 106.387 71.7894 106.413 71.7988C106.439 71.8083 106.463 71.8242 106.481 71.8451Z" fill="black"/>
<path id="Vector_130" d="M105.383 73.0265L105.629 72.9935C105.677 72.9935 105.71 72.9575 105.704 72.9275L105.452 71.8895C105.442 71.8718 105.427 71.858 105.408 71.8503C105.39 71.8426 105.369 71.8417 105.35 71.8475L105.104 71.8775C105.053 71.8775 105.02 71.9135 105.029 71.9465L105.281 72.9815C105.287 73.0145 105.335 73.0325 105.383 73.0265Z" fill="#263238"/>
<path id="Vector_131" d="M99.431 73.7938L99.677 73.7608C99.725 73.7608 99.761 73.7248 99.752 73.6948L99.5 72.6568C99.4901 72.6393 99.4749 72.6254 99.4565 72.6173C99.4381 72.6092 99.4176 72.6072 99.398 72.6118L99.152 72.6448C99.104 72.6448 99.068 72.6808 99.077 72.7108L99.329 73.7488C99.335 73.7938 99.383 73.8118 99.431 73.7938Z" fill="#263238"/>
<path id="Vector_132" d="M94.958 64.6078C95.207 65.7658 95.558 67.2328 96.071 69.0898L96.182 64.3828L94.958 64.6078Z" fill="#C7D9E5"/>
<path id="Vector_133" opacity="0.3" d="M94.958 64.6078C95.207 65.7658 95.558 67.2328 96.071 69.0898L96.182 64.3828L94.958 64.6078Z" fill="black"/>
<path id="Vector_134" d="M94.535 60.2614C93.41 60.7144 92.435 64.5634 92.435 64.5634L96.305 66.4474C96.305 66.4474 98.174 61.7404 97.337 60.8224C96.5 59.9044 95.831 59.7424 94.535 60.2614Z" fill="#C7D9E5"/>
<path id="Vector_135" opacity="0.1" d="M94.535 60.2614C93.41 60.7144 92.435 64.5634 92.435 64.5634L96.305 66.4474C96.305 66.4474 98.174 61.7404 97.337 60.8224C96.5 59.9044 95.831 59.7424 94.535 60.2614Z" fill="black"/>
<path id="Vector_136" d="M101.306 120.352H97.229L96.911 118.984L101.45 119.014L101.306 120.352Z" fill="#C7D9E5"/>
<path id="Vector_137" opacity="0.2" d="M101.306 120.352H97.229L96.911 118.984L101.45 119.014L101.306 120.352Z" fill="black"/>
<path id="Vector_138" d="M97.4 72.9837L97.073 72.8487C96.9926 72.8161 96.905 72.8052 96.8191 72.8173C96.7331 72.8294 96.6519 72.864 96.5837 72.9176C96.5155 72.9712 96.4626 73.042 96.4305 73.1226C96.3984 73.2032 96.3883 73.2909 96.401 73.3767L96.638 74.9397C96.6494 75.018 96.678 75.0927 96.7218 75.1585C96.7655 75.2244 96.8234 75.2796 96.8911 75.3204C96.9588 75.3612 97.0348 75.3864 97.1135 75.3942C97.1921 75.402 97.2715 75.3923 97.346 75.3657C97.465 75.3225 97.5763 75.2608 97.676 75.1827C97.7845 75.0928 97.8703 74.9786 97.9266 74.8493C97.9829 74.7201 98.008 74.5795 98 74.4387L97.967 73.7907C97.9613 73.6156 97.9046 73.446 97.8039 73.3027C97.7032 73.1593 97.5628 73.0485 97.4 72.9837Z" fill="#E4897B"/>
</g>
</g>
</svg>
